<svg xmlns="http://www.w3.org/2000/svg" viewBox="0 0 48 48"><path d="M40.14014,35.17214a21.74711,21.74711,0,0,1-2.15055,3.86655,19.64466,19.64466,0,0,1-2.77029,3.348,5.374,5.374,0,0,1-3.56039,1.56786,8.92388,8.92388,0,0,1-3.28879-.78516,9.43681,9.43681,0,0,0-3.54063-.78269,9.75685,9.75685,0,0,0-3.64088.78269,9.79614,9.79614,0,0,1-3.14608.82714,5.05987,5.05987,0,0,1-3.64088-1.60983,20.6281,20.6281,0,0,1-2.89744-3.46656,23.97487,23.97487,0,0,1-3.0641-6.08624,22.28558,22.28558,0,0,1-1.28663-7.25361,13.24636,13.24636,0,0,1,1.73945-6.93016,10.2039,10.2039,0,0,1,3.6431-3.68507,9.80028,9.80028,0,0,1,4.92528-1.38983,11.597,11.597,0,0,1,3.80951.88664,12.24642,12.24642,0,0,0,3.02164.88861A18.08065,18.08065,0,0,0,27.643,14.30389a11.07485,11.07485,0,0,1,4.55418-.80862,9.67,9.67,0,0,1,7.57508,3.98827,8.42594,8.42594,0,0,0-4.469,7.65458A8.44433,8.44433,0,0,0,38.076,31.50065a9.11178,9.11178,0,0,0,2.77029,1.81723q-.33332.96664-.70615,1.85426ZM32.42186,4.80022a8.5332,8.5332,0,0,1-2.18759,5.59711c-1.758,2.05525-3.88433,3.24286-6.19018,3.05546a6.22738,6.22738,0,0,1-.04642-.758,8.76728,8.76728,0,0,1,2.32067-5.65612A8.93492,8.93492,0,0,1,29.14541,4.916,8.42934,8.42934,0,0,1,32.37988,4a7.26578,7.26578,0,0,1,.042.8002Z"/></svg>