<svg xmlns="http://www.w3.org/2000/svg" viewBox="0 0 48 48"><path d="M44,24.00409c0-2.64984-3.31836-5.16107-8.406-6.71832,1.17407-5.18549.65222-9.311-1.647-10.6319a3.54938,3.54938,0,0,0-1.81818-.46472c-2.24219,0-5.17737,1.598-8.14514,4.37018-2.96777-2.75586-5.903-4.32941-8.14514-4.32941a3.63562,3.63562,0,0,0-1.84265.45654c-2.29108,1.32086-2.80469,5.43829-1.6225,10.60742C7.30206,18.85931,4,21.36243,4,24.00409c0,2.64978,3.31836,5.161,8.406,6.71826-1.17407,5.18549-.65222,9.311,1.647,10.6319a3.58441,3.58441,0,0,0,1.83453.4566c2.24213,0,5.17731-1.59808,8.14508-4.37018,2.96783,2.7558,5.903,4.33752,8.14514,4.33752a3.63546,3.63546,0,0,0,1.84265-.45654c2.29108-1.32086,2.80475-5.43829,1.6225-10.60742C40.69794,29.15692,44,26.64575,44,24.00409ZM32.12885,8.00732a1.85485,1.85485,0,0,1,.92133.22015c1.10883.63593,1.58984,3.05743,1.21478,6.172-.08966.76642-.23639,1.57361-.41577,2.39709a39.51288,39.51288,0,0,0-5.17737-.88873,39.76172,39.76172,0,0,0-3.39172-4.0766C27.938,9.36078,30.43292,8.00732,32.12885,8.00732ZM16.77618,28.17853q.57477.97842,1.17407,1.9079c-1.15778-.1712-2.27478-.38324-3.34283-.6441.30164-1.05182.6767-2.13617,1.10071-3.22058C16.04242,26.874,16.393,27.52631,16.77618,28.17853ZM14.58295,18.5658c1.06812-.25275,2.19324-.47284,3.35919-.6441-.39954.62781-.79907,1.27191-1.17407,1.93237-.37506.65222-.72565,1.3045-1.05994,1.95679C15.26782,20.71826,14.89276,19.62573,14.58295,18.5658ZM16.662,24.0285c.50549-1.09253,1.07623-2.18506,1.68774-3.25311.63593-1.10071,1.28821-2.14435,1.9649-3.11456,1.21484-.106,2.446-.16309,3.6853-.16309,1.23114,0,2.46228.05707,3.66895.15491q1.01514,1.45541,1.97314,3.09827c.61963,1.06805,1.18219,2.15247,1.69586,3.245-.51367,1.09253-1.07623,2.18506-1.68774,3.25317-.63593,1.10065-1.28821,2.14429-1.9649,3.11456-1.21484.106-2.446.163-3.6853.163-1.23114,0-2.46228-.05707-3.669-.15491q-1.015-1.45532-1.97308-3.09821Q17.42847,25.67139,16.662,24.0285Zm14.56177,4.12555c.37506-.65222.72565-1.31262,1.05994-1.9649.44025,1.09253.81531,2.18506,1.12512,3.245-1.06805.26093-2.19324.481-3.35913.65228C30.44922,29.45862,30.84875,28.81451,31.22382,28.15405Zm-.00818-8.32446c-.37506-.65228-.77454-1.28821-1.17407-1.9079,1.15778.17126,2.27478.38324,3.34283.6441-.30164,1.05182-.6767,2.13617-1.10065,3.22058C31.94946,21.13409,31.59888,20.48187,31.21564,19.82959Zm-4.97351-4.10114c-.73376-.03259-1.48389-.05707-2.24213-.05707-.76642,0-1.52466.0163-2.2666.05707a31.828,31.828,0,0,1,2.24213-2.609A33.6096,33.6096,0,0,1,26.24213,15.72845ZM14.90094,8.26007a1.8139,1.8139,0,0,1,.93762-.22015c1.68774,0,4.1908,1.34534,6.84875,3.79944A38.51075,38.51075,0,0,0,19.32,15.90784a38.08021,38.08021,0,0,0-5.18549.89685c-.1875-.81531-.32611-1.60614-.424-2.36444C13.32733,11.32568,13.80023,8.90417,14.90094,8.26007ZM12.84631,28.96124c-.80719-.25275-1.57361-.53-2.2829-.8316C7.67712,26.8985,5.81,25.28412,5.81,24.00409s1.86713-2.90259,4.75342-4.12561c.70117-.30164,1.46759-.57068,2.25842-.82349a39.15725,39.15725,0,0,0,1.83447,4.96539A38.6135,38.6135,0,0,0,12.84631,28.96124Zm3.02484,11.03955a1.9455,1.9455,0,0,1-.92133-.22015c-1.10883-.63593-1.58984-3.05743-1.21484-6.172.08972-.76642.23645-1.57361.41583-2.39709a39.51288,39.51288,0,0,0,5.17737.88873,39.76926,39.76926,0,0,0,3.39172,4.07666C20.062,38.64734,17.56708,40.00079,15.87115,40.00079Zm8.14514-5.11212a33.62265,33.62265,0,0,1-2.2666-2.609c.73376.03259,1.48389.05707,2.24213.05707.76642,0,1.52472-.0163,2.26666-.05707A31.82831,31.82831,0,0,1,24.0163,34.88867ZM33.09906,39.748a1.8141,1.8141,0,0,1-.93762.212c-1.68774,0-4.1908-1.34528-6.84875-3.79944A38.50455,38.50455,0,0,0,28.68,32.0921a38.06915,38.06915,0,0,0,5.18549-.89685,22.82563,22.82563,0,0,1,.424,2.37262C34.67267,36.68243,34.19977,39.10394,33.09906,39.748Zm4.32941-11.61841c-.70117.30164-1.46759.57074-2.25848.82349a39.15725,39.15725,0,0,0-1.83447-4.96539,38.595,38.595,0,0,0,1.81-4.94086c.80719.25275,1.57361.53,2.29108.8316,2.88629,1.23114,4.75336,2.84552,4.75336,4.12561C42.18182,25.28412,40.3147,26.90662,37.42847,28.12964Z"/><circle cx="23.99184" cy="24.00408" r="3.72605"/></svg>
