<?xml version="1.0" encoding="utf-8"?>
<!-- Generator: Adobe Illustrator 19.1.0, SVG Export Plug-In . SVG Version: 6.00 Build 0)  -->
<svg version="1.1" id="Layer_1" xmlns="http://www.w3.org/2000/svg" xmlns:xlink="http://www.w3.org/1999/xlink" x="0px" y="0px"
	 viewBox="0 0 225 225" xmlSpace="preserve">
<circle id="XMLID_229_" class="st0" cx="112.5" cy="112.5" r="112.5" fill="#9EB1BC"/>
<g>
	<path class="st1" fill="#ECEFF1" d="M53.3,150l-0.3,0.6l8.9,8.9l-2.8,2.8l-8.9-8.9l-0.6,0.4c-2.2,1.4-4.5,2.1-6.8,2.1c-3.4,0-6.4-1.2-8.8-3.7
		s-3.7-5.4-3.7-8.9s1.2-6.4,3.7-8.8c2.4-2.4,5.4-3.7,8.8-3.7s6.4,1.2,8.8,3.7c2.4,2.4,3.7,5.4,3.7,8.8C55.3,145.7,54.7,148,53.3,150
		z M49.8,136.3c-1.9-1.9-4.2-2.9-7-2.9s-5.1,1-7,2.9c-1.9,1.9-2.9,4.2-2.9,7c0,2.7,1,5.1,2.9,7c1.9,1.9,4.2,2.9,7,2.9s5.1-1,7-2.9
		c2-2,3-4.3,3-7C52.8,140.6,51.8,138.3,49.8,136.3z"/>
	<path class="st1" fill="#ECEFF1" d="M78.2,152.3c2,2.1,4.7,3.4,7.6,3.4c3.6,0,5.8-1.8,5.8-4.5c0-2.8-2-3.7-4.6-4.9l-3.9-1.7
		c-2.6-1.1-5.6-3.1-5.6-7.1c0-4.2,3.7-7.3,8.7-7.3c3.3,0,6.2,1.4,8.1,3.4l-1.8,2.3c-1.7-1.6-3.7-2.6-6.3-2.6c-3.1,0-5.2,1.6-5.2,4
		c0,2.6,2.4,3.7,4.6,4.6l3.9,1.7c3.2,1.4,5.7,3.3,5.7,7.4c0,4.4-3.6,7.9-9.4,7.9c-3.9,0-7.2-1.6-9.6-4.1L78.2,152.3z"/>
	<path class="st1" fill="#ECEFF1" d="M107.1,137.4c5.2,0,8.2,3.7,8.2,9.6c0,0.7,0,1.4-0.1,1.9h-13.8c0.3,4.4,2.9,7.2,6.8,7.2c1.9,0,3.6-0.6,5.1-1.6
		l1.2,2.3c-1.8,1.1-3.9,2.1-6.7,2.1c-5.5,0-9.8-4-9.8-10.7C98,141.5,102.5,137.4,107.1,137.4z M112.3,146.6c0-4.2-1.8-6.5-5-6.5
		c-2.9,0-5.5,2.4-5.9,6.5H112.3z"/>
	<path class="st1" fill="#ECEFF1" d="M130.4,145.4c0-2.6-0.9-5.1-4.2-5.1c-2.4,0-4.5,1.1-6.1,2.2l-1.4-2.4c1.9-1.2,4.7-2.6,8-2.6
		c5,0,7.1,3.3,7.1,8.4v12.5H131l-0.3-2.4h-0.1c-2,1.6-4.2,2.9-6.8,2.9c-3.4,0-6-2.1-6-5.8C117.9,148.6,121.7,146.4,130.4,145.4z
		 M124.8,156.1c2,0,3.6-1,5.6-2.7v-5.7c-6.8,0.8-9.2,2.5-9.2,5.1C121.3,155.1,122.8,156.1,124.8,156.1z"/>
	<path class="st1" fill="#ECEFF1" d="M139.2,137.9h2.9l0.3,3.7h0.1c1.4-2.6,3.5-4.2,5.8-4.2c0.9,0,1.5,0.1,2.2,0.4l-0.7,3c-0.7-0.2-1.1-0.3-2-0.3
		c-1.7,0-3.8,1.3-5.2,4.7v13.1h-3.4V137.9z"/>
	<path class="st1" fill="#ECEFF1" d="M161,137.4c2.7,0,4.6,1.1,6,2.4l-1.7,2.2c-1.2-1-2.5-1.8-4.1-1.8c-3.7,0-6.4,3.2-6.4,7.9
		c0,4.7,2.6,7.8,6.3,7.8c1.9,0,3.6-1,4.8-2.1l1.6,2.3c-1.8,1.6-4.2,2.6-6.6,2.6c-5.4,0-9.6-3.9-9.6-10.7
		C151.2,141.3,155.8,137.4,161,137.4z"/>
	<path class="st1" fill="#ECEFF1" d="M170.7,128.4h3.4v8.1l-0.1,4.2c1.9-1.8,4-3.4,6.8-3.4c4.3,0,6.2,2.8,6.2,8v12.9h-3.4v-12.5
		c0-3.8-1.2-5.5-3.9-5.5c-2.1,0-3.5,1.1-5.6,3.2v14.8h-3.4V128.4z"/>
</g>
<path id="XMLID_211_" class="st1" fill="#ECEFF1" d="M136.3,48.5L113,25.1c-0.2-0.2-0.4-0.3-0.7-0.3s-0.5,0.1-0.7,0.3L88.2,48.5
	c-0.4,0.4-0.4,1,0,1.4l4.2,4.2c0.2,0.2,0.4,0.3,0.7,0.3s0.5-0.1,0.7-0.3l14.4-14.4v48.3c0,0.6,0.4,1,1,1h6c0.6,0,1-0.4,1-1V39.8
	l14.4,14.4c0.2,0.2,0.4,0.3,0.7,0.3s0.5-0.1,0.7-0.3l4.2-4.2C136.7,49.5,136.7,48.9,136.3,48.5z"/>
<g>
	<defs>
		<circle id="XMLID_12_" cx="112.5" cy="112.5" r="112.5"/>
	</defs>
	<clipPath id="XMLID_2_">
		<use xlink:href="#XMLID_12_"/>
	</clipPath>
	<rect id="XMLID_228_" x="-37.7" y="112.5" class="st2" width="300" height="70" opacity="0.2" clip-path="url(#XMLID_2_)" fill="#ECEFF1"/>
	<rect id="XMLID_215_" x="-37.7" y="112.5" class="st3" width="300" height="70" clip-path="url(#XMLID_2_)" fill="none" stroke="#ECEFF1" stroke-width="3" stroke-miterlimit="10"/>
</g>
</svg>
