<svg xmlns="http://www.w3.org/2000/svg" viewBox="0 0 48 48"><path d="M23.39476,13.77386a.12971.12971,0,0,1-.13244.13244h-.13244c-.13244,0-.13244-.13244-.26487-.26487a.46239.46239,0,0,1-.13244-.26487c0-.13244,0-.13244.13244-.13244l.26487.13244c.13244.13244.26487.26487.26487.39731m-2.38387-1.32437c0-.66219-.26487-1.0595-.66219-1.0595a.12971.12971,0,0,1-.13244.13244v.26487h.39731c0,.26487.13244.39731.13244.66219h.26487m4.6353-.66219c.26487,0,.39731.26487.52975.66219h.26487a.48653.48653,0,0,1-.13244-.39731.48653.48653,0,0,0-.13244-.39731c-.13244-.13244-.26487-.26487-.39731-.26487a.46239.46239,0,0,1-.26487.13244c0,.13244.13244.13244.13244.26487m-3.97312,2.119c-.13244,0-.13244,0-.13244-.13244a.48653.48653,0,0,1,.13244-.39731.58007.58007,0,0,0,.39731-.13244.12971.12971,0,0,1,.13244.13244c0,.13244-.13244.26487-.39731.52975h-.13244m-1.45681-.13244c-.52975-.26487-.66219-.66219-.66219-1.32437a1.11743,1.11743,0,0,1,.26487-.92706.72831.72831,0,0,1,.66219-.39731c.26487,0,.39731.13244.66219.39731a3.867,3.867,0,0,1,.26487,1.19193v.26487h.13244V12.8468c.13244,0,.13244-.26487.13244-.79462a1.96817,1.96817,0,0,0-.26487-1.19193,1.1796,1.1796,0,0,0-1.0595-.66219.99592.99592,0,0,0-.92706.66219,3.11436,3.11436,0,0,0-.31785,1.58925,2.16942,2.16942,0,0,0,.71516,1.58925c.13244-.13244.26487-.13244.39731-.26487M36.77092,32.4475c.13244,0,.13244-.053.13244-.17217a1.43959,1.43959,0,0,0-.52975-1.01977,3.2335,3.2335,0,0,0-1.85412-.75489c-.13244-.01324-.26487-.01324-.26487-.01324a.9011.9011,0,0,0-.26487-.02649c-.13244-.01324-.39731-.03973-.52975-.06622a10.53071,10.53071,0,0,0,.52975-3.2712,5.19245,5.19245,0,0,0-.79462-3.04605,2.68516,2.68516,0,0,0-1.72168-1.32437c-.13244.13244-.13244.13244-.13244.26487a3.31487,3.31487,0,0,1,1.72168,1.58925,6.313,6.313,0,0,1,.52975,2.64874,9.25525,9.25525,0,0,1-.66219,3.24471,2.99822,2.99822,0,0,0-1.45681,1.47005c0,.11919,0,.18541.13244.18541a1.56674,1.56674,0,0,0,.26487-.34434c.26487-.22514.39731-.45029.66219-.67543a1.96819,1.96819,0,0,1,1.0595-.34434,4.49872,4.49872,0,0,1,1.72168.27812,1.60325,1.60325,0,0,1,.92706.56948q.19866.298.39731.55624a.30233.30233,0,0,0,.13244.25163M24.5867,13.24411a.99243.99243,0,0,1-.13244-.66219A1.78047,1.78047,0,0,1,24.71913,11.39a1.1447,1.1447,0,0,1,.79462-.39731,1.34053,1.34053,0,0,1,.92706.52975,3.11691,3.11691,0,0,1,.26487,1.0595,1.0648,1.0648,0,0,1-.79462,1.19193.46239.46239,0,0,0,.26487.13244c.26487,0,.39731.13244.66219.26487a11.75287,11.75287,0,0,0,.26487-1.98656,3.00511,3.00511,0,0,0-.39731-1.72168,1.70032,1.70032,0,0,0-1.32437-.52975,2.13613,2.13613,0,0,0-1.19193.39731,1.7612,1.7612,0,0,0-.39731,1.0595,3.666,3.666,0,0,0,.39731,1.72168c.13244,0,.26487.13244.39731.13244m1.58925,2.119a7.74909,7.74909,0,0,1-4.10555,1.72168,4.206,4.206,0,0,1-2.64874-1.0595,2.89493,2.89493,0,0,0,.39731.66219l.79462.79462a2.61476,2.61476,0,0,0,1.85412.79462,6.32167,6.32167,0,0,0,3.31093-1.45681l1.19193-.79462a1.34053,1.34053,0,0,0,.52975-.92706c0-.13244,0-.26487-.13244-.26487-.13244-.26487-.79462-.66219-2.119-1.0595a7.73738,7.73738,0,0,0-2.64874-.79462,4.93151,4.93151,0,0,0-1.98656.79462c-.79462.52975-1.32437,1.0595-1.32437,1.58925a1.639,1.639,0,0,1,.26487.39731,3.84118,3.84118,0,0,0,2.38387,1.0595,7.16244,7.16244,0,0,0,4.10555-1.85412v.26487a.12971.12971,0,0,1,.13244.13244M29.222,42.11542a2.83251,2.83251,0,0,0,3.31093,1.37735,1.72937,1.72937,0,0,0,.66219-.25163c.13244-.09271.26487-.18541.39731-.29136a1.581,1.581,0,0,0,.39731-.22514l2.25143-1.94683a8.917,8.917,0,0,1,1.72168-1.11247,11.41533,11.41533,0,0,1,1.32437-.64894,2.36362,2.36362,0,0,0,.92706-.47677,1.36686,1.36686,0,0,0,.26487-.76814,1.18682,1.18682,0,0,0-.52975-.88733,2.69467,2.69467,0,0,0-.79462-.45029,3.0573,3.0573,0,0,1-.92706-.66219,3.57172,3.57172,0,0,1-.66219-1.44357L37.4331,33.56c-.13244-.35758-.13244-.62245-.26487-.76814,0-.03973,0-.053-.13244-.053a.72682.72682,0,0,0-.52975.34434c-.26487.22514-.52975.47677-.79462.74165-.13244.26487-.52975.50326-.79462.7284a2.381,2.381,0,0,1-1.0595.34434,2.10589,2.10589,0,0,1-1.98656-.86084A4.8268,4.8268,0,0,1,31.341,32.5667c-.26487-.22514-.39731-.34434-.66219-.34434-.66219,0-.92706.68867-.92706,2.07926v4.1188a4.20319,4.20319,0,0,0-.13244.79462,4.65411,4.65411,0,0,0-.13244,1.40383L29.222,42.08893v.02251m-19.20339-.70059a21.72914,21.72914,0,0,1,4.25123,1.15353,14.15968,14.15968,0,0,0,2.94011.88733,2.89085,2.89085,0,0,0,2.33089-1.20385,1.96,1.96,0,0,0,.13244-.90587q0-1.8773-2.26468-4.75449L16.508,35.38231a12.51786,12.51786,0,0,1-.70192-1.1522,11.3233,11.3233,0,0,0-.7284-1.19193,3.57591,3.57591,0,0,0-.80787-.91382,2.72,2.72,0,0,0-1.17869-.60921,1.79193,1.79193,0,0,0-1.12572.543,1.61978,1.61978,0,0,0-.31785.82111.784.784,0,0,1-.25163.55624,2.41491,2.41491,0,0,1-.66219.2119c-.06622,0-.18541,0-.35758.01324h-.35758a3.40561,3.40561,0,0,0-1.43032.2119A1.94348,1.94348,0,0,0,8.085,35.15717a6.046,6.046,0,0,0,.15892,1.07274,5.93184,5.93184,0,0,1,.15892,1.16545,3.0965,3.0965,0,0,1-.49,1.629,2.96211,2.96211,0,0,0-.50326,1.29524c.13244.51386,1.00652.87541,2.609,1.08731m4.41016-12.03854a8.2437,8.2437,0,0,1,.7284-3.11227,8.72835,8.72835,0,0,1,1.41708-2.51631c-.02649-.13244-.09271-.13244-.19866-.13244l-.13244-.13244a10.14219,10.14219,0,0,0-1.40383,2.64874,7.87486,7.87486,0,0,0-.8476,3.099,3.0198,3.0198,0,0,0,.41056,1.56276A9.37116,9.37116,0,0,0,16.508,32.666l1.40383.91382C19.4084,34.87773,20.203,35.7783,20.203,36.308a1.083,1.083,0,0,1-.52975.86084,1.25371,1.25371,0,0,1-.92706.47677c-.02649,0-.03973.02649-.03973.09271,0,.01324.13244.27812.41056.79462.55624.75489,1.74817,1.12572,3.33742,1.12572a8.03114,8.03114,0,0,0,6.88673-3.5758,2.65817,2.65817,0,0,0-.13244-1.24491v-.49a3.7306,3.7306,0,0,1,.39731-1.93358,1.05026,1.05026,0,0,1,.92706-.62245,1.31071,1.31071,0,0,1,.79462.29136,20.05427,20.05427,0,0,0,.13244-2.70172,11.42294,11.42294,0,0,0-.26487-3.12552,6.98049,6.98049,0,0,0-.66219-1.98656l-.79462-1.19194c-.26487-.39731-.39731-.79462-.66219-1.19193a5.69159,5.69159,0,0,1-.26487-1.58925c-.39731-.66219-.66219-1.32437-1.0595-1.98656-.26487-.66219-.52975-1.32437-.79462-1.85412l-1.19193.92706a5.94931,5.94931,0,0,1-3.31093,1.32437,2.15123,2.15123,0,0,1-1.85412-.66219l-.79462-.66219a3.45294,3.45294,0,0,1-.39731,1.45681L18.574,20.42883a8.079,8.079,0,0,0-.60921,1.85412,2.64518,2.64518,0,0,1-.11919.52975l-.99328,1.98656a11.71265,11.71265,0,0,0-1.61573,5.35046,5.75306,5.75306,0,0,0,.07946.9403,1.96279,1.96279,0,0,1-.88733-1.72168m9.4825,12.52856a9.11482,9.11482,0,0,0-3.97312.6953v-.03973a2.97444,2.97444,0,0,1-2.43684,1.20518,10.13223,10.13223,0,0,1-3.04605-.75489,35.96684,35.96684,0,0,0-3.695-1.08334c-.10595-.03046-.34434-.07549-.7284-.13641-.37082-.0596-.71516-.12052-1.01977-.18144a7.6844,7.6844,0,0,1-.9403-.2715,2.32668,2.32668,0,0,1-.79462-.40658.74868.74868,0,0,1-.27282-.56551,1.946,1.946,0,0,1,.13509-.6794c.08476-.14568.17747-.29136.27017-.4238a2.56623,2.56623,0,0,0,.22514-.41056,1.94032,1.94032,0,0,0,.18541-.37082,1.63855,1.63855,0,0,0,.13244-.38407,2.0446,2.0446,0,0,0,.053-.39731c0-.13244-.053-.52975-.15892-1.23167a11.93723,11.93723,0,0,1-.15892-1.31113,2.01807,2.01807,0,0,1,.4238-1.37735,1.19648,1.19648,0,0,1,.86084-.50326h1.523a1.36219,1.36219,0,0,0,.58272-.22514c.09271-.2119.17217-.38407.22514-.543.06622-.15892.09271-.27812.11919-.33109.02649-.07946.053-.15892.07946-.22514a1.82835,1.82835,0,0,1,.2119-.30461.80158.80158,0,0,1-.15892-.51651,1.35036,1.35036,0,0,1,.02649-.35758,4.778,4.778,0,0,1,.70192-2.03953l.46353-.83435a18.32145,18.32145,0,0,0,.88733-1.77466,17.32335,17.32335,0,0,0,.7284-2.38387A6.58672,6.58672,0,0,1,15.87233,20.952L16.86561,19.76a9.3496,9.3496,0,0,0,1.39059-1.98656,4.26717,4.26717,0,0,0,.38407-1.72168c0-.26487-.06622-1.0595-.2119-2.38387-.13244-1.32437-.19866-2.64874-.19866-3.84068a8.5138,8.5138,0,0,1,.25163-2.25143,4.70863,4.70863,0,0,1,.92706-1.85412,3.55349,3.55349,0,0,1,1.72168-1.32437A8.80441,8.80441,0,0,1,23.91127,4a3.66661,3.66661,0,0,1,1.19193.13244,4.57879,4.57879,0,0,1,1.58925.39731,5.46874,5.46874,0,0,1,1.45681.92706,5.94047,5.94047,0,0,1,1.32437,1.72168,12.88013,12.88013,0,0,1,.66219,2.64874c.13244.66219.13244,1.32437.26487,2.25143,0,.79462.13244,1.32437.13244,1.72168.13244.39731.13244.92706.26487,1.58925a4.74429,4.74429,0,0,0,.52975,1.45681,9.878,9.878,0,0,0,.92706,1.58925c.39731.66219.92706,1.32437,1.45681,2.119a13.2808,13.2808,0,0,1,2.64874,4.238,11.12618,11.12618,0,0,1,1.0595,4.88693,9.00059,9.00059,0,0,1-.39731,2.662.58037.58037,0,0,1,.52975.29136,3.71558,3.71558,0,0,1,.39731,1.20518l.13244.98a1.55818,1.55818,0,0,0,.66219.80787,2.94388,2.94388,0,0,0,.92706.596,4.29943,4.29943,0,0,1,.92706.55624,1.17765,1.17765,0,0,1,.39731.83435,1.28863,1.28863,0,0,1-.39731,1.01977,2.07472,2.07472,0,0,1-.92706.56948c-.26487.13244-.79462.39731-1.58925.77078a14.41914,14.41914,0,0,0-1.98656,1.43032l-1.32437,1.127a7.33822,7.33822,0,0,1-1.45681,1.11247A2.89677,2.89677,0,0,1,31.8575,44l-.92706-.10595a3.0224,3.0224,0,0,1-2.119-1.61573,45.23558,45.23558,0,0,0-4.90018-.38407"/></svg>