<svg xmlns="http://www.w3.org/2000/svg" viewBox="0 0 48 48"><path d="M34.07628,34.515c-3.1807,0-5.87881-3.549-8.04549-6.40244l-.59022-.77326c-2.46733-3.20844-5.40063-6.59327-9.46664-7.47192a8.24314,8.24314,0,0,1,16.09873.16974,12.764,12.764,0,0,0-4.46429,2.4618l2.78908,3.50354c1.78061-1.41783,3.02205-1.92373,4.42768-1.80392A5.17279,5.17279,0,0,1,34.07628,34.515Zm2.51393-14.53779A12.70985,12.70985,0,0,0,11.4109,19.9695a9.61982,9.61982,0,0,0,1.41672,18.94993c3.34711.27514,5.84552-1.36791,7.84357-3.00763l-2.839-3.46249c-1.63306,1.338-2.98877,2.13452-4.64513,2.00693a5.18182,5.18182,0,0,1,.73665-10.33533c3.12967,0,5.75232,3.06976,7.96672,5.9487l.57357.75218c2.61933,3.447,6.20829,8.17085,11.61226,8.17085A9.81277,9.81277,0,0,0,44,29.31854,9.82216,9.82216,0,0,0,36.59021,19.97725Z" style="fill-rule:evenodd"/></svg>